<svg width="1339" height="78" viewBox="0 0 1339 78" fill="none" xmlns="http://www.w3.org/2000/svg">
<path d="M31.4134 69.2729C35.6752 68.0184 35.6752 61.9816 31.4134 60.7271C26.4784 59.2744 27.5269 52 32.6712 52H45.9289H88.6499C89.6058 52 90.5568 52.1371 91.4738 52.407L101.665 55.407C111.233 58.2236 111.233 71.7764 101.665 74.593L91.4738 77.593C90.5568 77.8629 89.6058 78 88.6499 78H45.9289H32.6712C27.5269 78 26.4784 70.7256 31.4134 69.2729Z" fill="white" fill-opacity="0.06"/>
<path d="M192.163 69.2729C196.425 68.0184 196.425 61.9816 192.163 60.7271C187.228 59.2744 188.277 52 193.421 52H206.679H249.4C250.356 52 251.307 52.1371 252.224 52.407L262.415 55.407C271.983 58.2236 271.983 71.7764 262.415 74.593L252.224 77.593C251.307 77.8629 250.356 78 249.4 78H206.679H193.421C188.277 78 187.228 70.7256 192.163 69.2729Z" fill="white" fill-opacity="0.06"/>
<path d="M352.915 69.2729C357.177 68.0184 357.177 61.9816 352.915 60.7271C347.98 59.2744 349.029 52 354.173 52H367.431H410.152C411.108 52 412.059 52.1371 412.976 52.407L423.167 55.407C432.735 58.2236 432.735 71.7764 423.167 74.593L412.976 77.593C412.059 77.8629 411.108 78 410.152 78H367.431H354.173C349.029 78 347.98 70.7256 352.915 69.2729Z" fill="white" fill-opacity="0.06"/>
<path d="M513.665 69.2729C517.927 68.0184 517.927 61.9816 513.665 60.7271C508.73 59.2744 509.779 52 514.923 52H528.181H570.902C571.858 52 572.809 52.1371 573.726 52.407L583.917 55.407C593.485 58.2236 593.485 71.7764 583.917 74.593L573.726 77.593C572.809 77.8629 571.858 78 570.902 78H528.181H514.923C509.779 78 508.73 70.7256 513.665 69.2729Z" fill="white" fill-opacity="0.06"/>
<path d="M674.416 69.2729C678.678 68.0184 678.678 61.9816 674.416 60.7271C669.481 59.2744 670.53 52 675.674 52H688.932H731.653C732.609 52 733.56 52.1371 734.477 52.407L744.668 55.407C754.236 58.2236 754.236 71.7764 744.668 74.593L734.477 77.593C733.56 77.8629 732.609 78 731.653 78H688.932H675.674C670.53 78 669.481 70.7256 674.416 69.2729Z" fill="white" fill-opacity="0.06"/>
<path d="M835.166 69.2729C839.428 68.0184 839.428 61.9816 835.166 60.7271C830.231 59.2744 831.28 52 836.424 52H849.682H892.403C893.359 52 894.31 52.1371 895.227 52.407L905.418 55.407C914.986 58.2236 914.986 71.7764 905.418 74.593L895.227 77.593C894.31 77.8629 893.359 78 892.403 78H849.682H836.424C831.28 78 830.231 70.7256 835.166 69.2729Z" fill="white" fill-opacity="0.06"/>
<path d="M995.917 69.2729C1000.18 68.0184 1000.18 61.9816 995.917 60.7271C990.982 59.2744 992.031 52 997.175 52H1010.43H1053.15C1054.11 52 1055.06 52.1371 1055.98 52.407L1066.17 55.407C1075.74 58.2236 1075.74 71.7764 1066.17 74.593L1055.98 77.593C1055.06 77.8629 1054.11 78 1053.15 78H1010.43H997.175C992.031 78 990.982 70.7256 995.917 69.2729Z" fill="white" fill-opacity="0.06"/>
<path d="M1156.67 69.2729C1160.93 68.0184 1160.93 61.9816 1156.67 60.7271C1151.73 59.2744 1152.78 52 1157.93 52H1171.18H1213.9C1214.86 52 1215.81 52.1371 1216.73 52.407L1226.92 55.407C1236.49 58.2236 1236.49 71.7764 1226.92 74.593L1216.73 77.593C1215.81 77.8629 1214.86 78 1213.9 78H1171.18H1157.93C1152.78 78 1151.73 70.7256 1156.67 69.2729Z" fill="white" fill-opacity="0.06"/>
<path d="M110.905 43.2729C115.166 42.0184 115.166 35.9816 110.905 34.7271C105.97 33.2744 107.018 26 112.162 26H125.42H168.141C169.097 26 170.048 26.1371 170.965 26.407L181.156 29.407C190.724 32.2236 190.724 45.7764 181.156 48.593L170.965 51.593C170.048 51.8629 169.097 52 168.141 52H125.42H112.162C107.018 52 105.97 44.7256 110.905 43.2729Z" fill="white" fill-opacity="0.06"/>
<path d="M271.656 43.2729C275.917 42.0184 275.917 35.9816 271.656 34.7271C266.721 33.2744 267.769 26 272.913 26H286.171H328.892C329.848 26 330.799 26.1371 331.716 26.407L341.907 29.407C351.475 32.2236 351.475 45.7764 341.907 48.593L331.716 51.593C330.799 51.8629 329.848 52 328.892 52H286.171H272.913C267.769 52 266.721 44.7256 271.656 43.2729Z" fill="white" fill-opacity="0.06"/>
<path d="M432.407 43.2729C436.668 42.0184 436.668 35.9816 432.407 34.7271C427.472 33.2744 428.52 26 433.664 26H446.922H489.643C490.599 26 491.55 26.1371 492.467 26.407L502.658 29.407C512.226 32.2236 512.226 45.7764 502.658 48.593L492.467 51.593C491.55 51.8629 490.599 52 489.643 52H446.922H433.664C428.52 52 427.472 44.7256 432.407 43.2729Z" fill="white" fill-opacity="0.06"/>
<path d="M593.158 43.2729C597.419 42.0184 597.419 35.9816 593.158 34.7271C588.223 33.2744 589.271 26 594.415 26H607.673H650.394C651.35 26 652.301 26.1371 653.218 26.407L663.409 29.407C672.977 32.2236 672.977 45.7764 663.409 48.593L653.218 51.593C652.301 51.8629 651.35 52 650.394 52H607.673H594.415C589.271 52 588.223 44.7256 593.158 43.2729Z" fill="white" fill-opacity="0.06"/>
<path d="M753.909 43.2729C758.17 42.0184 758.17 35.9816 753.909 34.7271C748.974 33.2744 750.022 26 755.166 26H768.424H811.145C812.101 26 813.052 26.1371 813.969 26.407L824.16 29.407C833.728 32.2236 833.728 45.7764 824.16 48.593L813.969 51.593C813.052 51.8629 812.101 52 811.145 52H768.424H755.166C750.022 52 748.974 44.7256 753.909 43.2729Z" fill="white" fill-opacity="0.06"/>
<path d="M914.659 43.2729C918.92 42.0184 918.92 35.9816 914.659 34.7271C909.724 33.2744 910.772 26 915.916 26H929.174H971.895C972.851 26 973.802 26.1371 974.719 26.407L984.91 29.407C994.478 32.2236 994.478 45.7764 984.91 48.593L974.719 51.593C973.802 51.8629 972.851 52 971.895 52H929.174H915.916C910.772 52 909.724 44.7256 914.659 43.2729Z" fill="white" fill-opacity="0.06"/>
<path d="M1075.41 43.2729C1079.67 42.0184 1079.67 35.9816 1075.41 34.7271C1070.47 33.2744 1071.52 26 1076.67 26H1089.92H1132.65C1133.6 26 1134.55 26.1371 1135.47 26.407L1145.66 29.407C1155.23 32.2236 1155.23 45.7764 1145.66 48.593L1135.47 51.593C1134.55 51.8629 1133.6 52 1132.65 52H1089.92H1076.67C1071.52 52 1070.47 44.7256 1075.41 43.2729Z" fill="white" fill-opacity="0.06"/>
<path d="M1236.16 43.2729C1240.42 42.0184 1240.42 35.9816 1236.16 34.7271C1231.22 33.2744 1232.27 26 1237.42 26H1250.67H1293.4C1294.35 26 1295.3 26.1371 1296.22 26.407L1306.41 29.407C1315.98 32.2236 1315.98 45.7764 1306.41 48.593L1296.22 51.593C1295.3 51.8629 1294.35 52 1293.4 52H1250.67H1237.42C1232.27 52 1231.22 44.7256 1236.16 43.2729Z" fill="white" fill-opacity="0.06"/>
<path d="M29.6468 17.2729C33.9086 16.0184 33.9086 9.98165 29.6468 8.7271C24.7118 7.2744 25.7603 0 30.9046 0H44.1623H86.8833C87.8392 0 88.7902 0.137061 89.7072 0.406998L99.8985 3.407C109.467 6.22357 109.467 19.7764 99.8985 22.593L89.7072 25.593C88.7902 25.8629 87.8392 26 86.8833 26H44.1623H30.9046C25.7603 26 24.7118 18.7256 29.6468 17.2729Z" fill="white" fill-opacity="0.06"/>
<path d="M190.398 17.2729C194.66 16.0184 194.66 9.98165 190.398 8.7271C185.463 7.2744 186.511 0 191.656 0H204.913H247.634C248.59 0 249.541 0.137061 250.458 0.406998L260.649 3.407C270.218 6.22357 270.218 19.7764 260.649 22.593L250.458 25.593C249.541 25.8629 248.59 26 247.634 26H204.913H191.656C186.511 26 185.463 18.7256 190.398 17.2729Z" fill="white" fill-opacity="0.06"/>
<path d="M351.149 17.2729C355.411 16.0184 355.411 9.98165 351.149 8.7271C346.214 7.2744 347.262 0 352.407 0H365.664H408.385C409.341 0 410.292 0.137061 411.209 0.406998L421.4 3.407C430.969 6.22357 430.969 19.7764 421.4 22.593L411.209 25.593C410.292 25.8629 409.341 26 408.385 26H365.664H352.407C347.262 26 346.214 18.7256 351.149 17.2729Z" fill="white" fill-opacity="0.06"/>
<path d="M511.899 17.2729C516.161 16.0184 516.161 9.98165 511.899 8.7271C506.964 7.2744 508.012 0 513.157 0H526.414H569.135C570.091 0 571.042 0.137061 571.959 0.406998L582.15 3.407C591.719 6.22357 591.719 19.7764 582.15 22.593L571.959 25.593C571.042 25.8629 570.091 26 569.135 26H526.414H513.157C508.012 26 506.964 18.7256 511.899 17.2729Z" fill="white" fill-opacity="0.06"/>
<path d="M672.649 17.2729C676.911 16.0184 676.911 9.98165 672.649 8.7271C667.714 7.2744 668.762 0 673.907 0H687.164H729.885C730.841 0 731.792 0.137061 732.709 0.406998L742.9 3.407C752.469 6.22357 752.469 19.7764 742.9 22.593L732.709 25.593C731.792 25.8629 730.841 26 729.885 26H687.164H673.907C668.762 26 667.714 18.7256 672.649 17.2729Z" fill="white" fill-opacity="0.06"/>
<path d="M833.4 17.2729C837.662 16.0184 837.662 9.98165 833.4 8.7271C828.465 7.2744 829.513 0 834.658 0H847.915H890.636C891.592 0 892.543 0.137061 893.46 0.406998L903.651 3.407C913.22 6.22357 913.22 19.7764 903.651 22.593L893.46 25.593C892.543 25.8629 891.592 26 890.636 26H847.915H834.658C829.513 26 828.465 18.7256 833.4 17.2729Z" fill="white" fill-opacity="0.06"/>
<path d="M994.151 17.2729C998.413 16.0184 998.413 9.98165 994.151 8.7271C989.216 7.2744 990.264 0 995.409 0H1008.67H1051.39C1052.34 0 1053.29 0.137061 1054.21 0.406998L1064.4 3.407C1073.97 6.22357 1073.97 19.7764 1064.4 22.593L1054.21 25.593C1053.29 25.8629 1052.34 26 1051.39 26H1008.67H995.409C990.264 26 989.216 18.7256 994.151 17.2729Z" fill="white" fill-opacity="0.06"/>
<path d="M1154.9 17.2729C1159.16 16.0184 1159.16 9.98165 1154.9 8.7271C1149.97 7.2744 1151.01 0 1156.16 0H1169.42H1212.14C1213.09 0 1214.04 0.137061 1214.96 0.406998L1225.15 3.407C1234.72 6.22357 1234.72 19.7764 1225.15 22.593L1214.96 25.593C1214.04 25.8629 1213.09 26 1212.14 26H1169.42H1156.16C1151.01 26 1149.97 18.7256 1154.9 17.2729Z" fill="white" fill-opacity="0.06"/>
</svg>
