<svg version="1.1" id="Layer_1" xmlns="http://www.w3.org/2000/svg" xmlns:xlink="http://www.w3.org/1999/xlink" x="0px" y="0px"
	 width="100%" viewBox="0 0 1563 689" enable-background="new 0 0 1563 689" xml:space="preserve">
<path fill="#FFFFFF" opacity="1.000000" stroke="none" 
	d="
M1175.000000,690.000000 
	C783.376648,690.000000 392.253357,690.000000 1.065015,690.000000 
	C1.065015,460.402130 1.065015,230.804260 1.065015,1.103187 
	C522.000000,1.103187 1043.000000,1.103187 1563.978027,1.103187 
	C1563.978027,230.746918 1563.978027,460.373474 1563.978027,690.000000 
	C1434.470581,690.000000 1304.985352,690.000000 1175.000000,690.000000 
M867.336792,664.134766 
	C885.092712,667.061646 902.848633,669.988525 920.676758,672.927307 
	C933.947632,638.186768 947.050476,603.886108 960.225952,569.395264 
	C949.123718,568.559692 938.825806,567.813171 928.532776,567.004639 
	C895.976318,564.447327 863.570923,560.770203 831.802124,552.894104 
	C818.763611,549.661621 805.896973,545.790344 793.833618,538.884521 
	C795.443176,536.082092 796.902649,533.541016 798.478882,530.796570 
	C814.576050,539.422180 831.897827,543.491333 849.318848,547.042358 
	C885.959839,554.511108 923.159729,557.320923 960.380859,559.933289 
	C964.991577,560.256897 964.891541,557.385376 965.454956,554.964966 
	C944.164062,553.232849 922.890869,552.156799 901.796936,549.601318 
	C880.860291,547.064941 860.103943,543.039246 839.268555,539.666748 
	C839.256714,539.150146 839.244934,538.633545 839.233093,538.116943 
	C841.304260,536.519470 843.343994,534.879272 845.451172,533.330811 
	C914.445129,482.628906 953.503418,414.547791 962.779297,329.599640 
	C966.524536,295.300812 964.146179,261.094574 955.594604,227.625305 
	C933.619141,141.616638 882.200867,78.682594 803.520081,38.552395 
	C746.732117,9.588400 685.885193,0.631456 622.598511,6.774546 
	C589.152283,10.021091 557.086731,18.372639 526.466736,32.047619 
	C513.999268,37.615620 502.019226,44.274902 490.074738,50.307701 
	C506.384644,63.629353 521.895508,76.298347 537.575562,89.105507 
	C503.126373,133.349533 469.451233,176.599457 435.610352,220.062241 
	C417.871094,203.077545 399.363739,188.163223 377.383179,178.193863 
	C376.967957,178.721176 376.696747,178.952362 376.567352,179.246033 
	C363.781250,208.268326 355.867554,238.523544 352.798462,270.130463 
	C349.716919,301.866211 351.208557,333.358429 358.313202,364.352600 
	C376.065552,441.797577 418.948517,501.870941 486.002228,544.237000 
	C536.283386,576.005798 591.764221,591.155640 651.113098,591.909058 
	C665.557556,592.092468 680.026001,590.805542 694.473633,590.016296 
	C697.983093,589.824585 700.732361,590.343140 703.372375,593.044434 
	C707.435669,597.202026 712.010315,600.864075 716.409180,604.688965 
	C739.737305,624.973389 765.247437,641.951416 793.302734,654.985718 
	C832.050903,672.987732 872.948120,682.549133 915.726990,685.762512 
	C916.215393,684.322021 916.707947,682.869263 917.280762,681.179749 
	C837.288330,675.116577 768.631348,644.741821 710.435608,589.768066 
	C712.761597,587.254333 714.831665,585.017212 716.973999,582.701904 
	C759.966370,623.313660 809.332947,650.867981 867.336792,664.134766 
M190.783676,204.291611 
	C201.920029,191.025314 215.086716,180.129593 230.004593,171.428741 
	C262.052612,152.736786 296.652985,145.251877 333.372559,150.405457 
	C365.391632,154.899323 393.770477,168.678177 419.466949,188.072845 
	C424.496979,191.869308 429.277405,195.996460 434.411926,200.165085 
	C462.647278,163.793793 490.769257,127.568581 518.923157,91.302193 
	C518.505371,90.776970 518.254150,90.343735 517.897766,90.029861 
	C486.689758,62.544868 451.891571,40.920486 412.864502,26.406746 
	C382.707184,15.191581 351.617004,7.969249 319.336456,6.994438 
	C293.323700,6.208902 267.547607,8.544228 242.049896,13.965025 
	C194.243210,24.128700 150.498459,43.381897 112.586342,74.288177 
	C51.070595,124.436340 15.427419,189.068420 6.760108,268.314819 
	C3.418476,298.867828 5.006354,329.167542 11.287179,359.098480 
	C25.501789,426.837341 60.601849,481.979095 115.216148,524.043457 
	C179.691360,573.702820 253.175766,594.796509 334.354889,589.186096 
	C367.570129,586.890442 399.486237,579.137390 430.002960,565.960205 
	C442.336212,560.634766 454.180511,554.177063 467.128357,547.800659 
	C425.399536,518.469238 393.385956,482.406952 371.194366,437.733917 
	C354.965332,444.212189 338.692444,448.585144 321.739410,449.878113 
	C291.869659,452.156342 263.512268,446.484711 237.271591,432.000702 
	C188.021683,404.816406 159.486572,363.819916 155.915558,306.914276 
	C153.492798,268.306183 165.775620,234.452194 190.783676,204.291611 
M1108.781860,635.139221 
	C1106.774536,648.043213 1104.778687,660.948975 1102.751831,673.849915 
	C1102.208618,677.307068 1104.564819,677.793152 1106.990234,677.833679 
	C1114.650024,677.961914 1122.321411,677.716064 1129.970581,678.037231 
	C1134.512329,678.227905 1135.518311,675.725464 1136.003418,672.095703 
	C1138.654297,652.259094 1141.345581,632.427673 1144.093506,612.604309 
	C1144.321533,610.960266 1145.073730,609.388916 1146.064209,606.262634 
	C1147.775269,609.111755 1149.031616,610.455322 1149.448120,612.022095 
	C1151.699585,620.493164 1153.691162,629.032776 1155.870972,637.523499 
	C1158.899048,649.318176 1162.026611,661.087219 1165.085693,672.873962 
	C1166.052002,676.597168 1168.123169,678.478271 1172.230591,678.041321 
	C1179.827393,677.233154 1187.448120,676.648682 1195.062012,676.006165 
	C1198.177490,675.743164 1198.451416,673.702026 1197.865234,671.374146 
	C1195.890991,663.534912 1193.758667,655.735535 1191.765869,647.900879 
	C1187.865845,632.567322 1184.019043,617.220215 1180.110840,601.722412 
	C1188.640991,598.325745 1194.553955,592.615723 1199.257935,585.240845 
	C1208.681030,570.467163 1211.356445,554.297180 1209.933472,537.209778 
	C1208.593018,521.113220 1201.122925,514.742737 1186.605713,512.368164 
	C1169.212036,509.523163 1151.192871,510.486633 1133.443115,509.845886 
	C1130.020630,509.722290 1128.391968,511.599213 1128.017334,514.942505 
	C1127.593750,518.722961 1126.975708,522.483337 1126.376953,526.242065 
	C1123.879517,541.917664 1121.352783,557.588562 1118.846680,573.262756 
	C1117.150635,583.871399 1115.501831,594.487610 1113.775146,605.091187 
	C1112.190796,614.820557 1110.530273,624.537476 1108.781860,635.139221 
M1206.203491,658.827332 
	C1203.917236,664.692200 1201.630981,670.557129 1199.096436,677.058899 
	C1202.254272,677.377197 1204.194946,677.706482 1206.141357,677.745361 
	C1213.800171,677.898804 1221.475708,677.706970 1229.115479,678.152100 
	C1233.688354,678.418579 1235.857788,676.979309 1237.312500,672.479065 
	C1239.335205,666.221680 1242.345337,660.271179 1245.142212,654.287170 
	C1245.665527,653.167603 1247.154907,651.780823 1248.230835,651.752625 
	C1256.343994,651.540344 1264.465454,651.636841 1273.645874,651.636841 
	C1273.645874,661.298096 1273.645874,669.595825 1273.645874,678.007812 
	C1283.382202,678.007812 1292.038940,677.830261 1300.682983,678.086365 
	C1304.704590,678.205505 1306.161011,677.240112 1306.001831,672.851196 
	C1305.170410,649.920227 1304.722534,626.975708 1304.049927,604.038574 
	C1303.607544,588.950989 1303.099365,573.864075 1302.457153,558.783875 
	C1301.827271,543.988892 1300.934692,529.205139 1300.289917,514.410706 
	C1300.155029,511.318298 1299.102173,509.877289 1295.847778,509.915802 
	C1286.699341,510.024170 1277.548706,509.953644 1268.240479,509.953644 
	C1263.436890,520.825745 1258.587646,531.514526 1253.976562,542.305176 
	C1247.046143,558.523193 1240.138428,574.753662 1233.483643,591.085815 
	C1224.394165,613.393311 1215.551270,635.801331 1206.203491,658.827332 
M1497.165894,515.604919 
	C1493.829468,519.884155 1489.770386,523.786926 1487.304565,528.519714 
	C1481.880493,538.929993 1480.509155,550.524536 1482.326782,561.858276 
	C1483.382568,568.442749 1486.885864,575.034424 1490.692749,580.674500 
	C1495.207031,587.362793 1501.313354,592.962158 1506.585205,599.156433 
	C1516.427856,610.721436 1522.022217,623.732788 1520.004150,639.312805 
	C1519.082275,646.429932 1515.092651,650.916687 1509.409424,650.852112 
	C1504.164062,650.792480 1500.379150,645.923584 1500.042236,638.764893 
	C1499.979614,637.434387 1500.001953,636.099304 1500.003540,634.766357 
	C1500.008667,630.600586 1500.074585,626.434143 1500.017090,622.269348 
	C1499.968384,618.745361 1498.536499,616.782715 1494.553955,616.933350 
	C1488.564331,617.159851 1482.557861,617.063232 1476.561401,616.953308 
	C1472.056152,616.870789 1469.013062,618.465942 1468.974365,623.365051 
	C1468.902710,632.456665 1467.663208,641.811523 1469.353516,650.586121 
	C1472.577271,667.322571 1481.432129,679.204102 1501.439697,680.111389 
	C1507.547974,680.388367 1513.710815,680.625610 1519.790161,680.143250 
	C1534.028687,679.013733 1548.099731,668.094666 1551.313232,654.673462 
	C1554.506104,641.339111 1555.498413,627.986816 1551.596680,614.957520 
	C1549.187622,606.912415 1545.096069,599.089111 1540.389160,592.087708 
	C1534.886353,583.902283 1527.618286,576.927673 1521.622437,569.042725 
	C1515.652100,561.191528 1511.504639,552.509583 1515.139282,542.269348 
	C1515.973389,539.919495 1517.356934,537.203796 1519.315674,535.918091 
	C1525.417603,531.912903 1532.373779,536.018982 1532.715454,543.864746 
	C1532.916260,548.478882 1532.089600,553.136414 1531.746460,557.776001 
	C1531.544067,560.512573 1531.873901,562.884583 1535.463623,562.895569 
	C1542.461426,562.916992 1549.461670,563.066101 1556.455933,562.923462 
	C1559.113281,562.869324 1561.061279,561.715393 1561.223877,558.410950 
	C1561.581787,551.137939 1563.152832,543.807739 1562.575073,536.634033 
	C1561.782837,526.796448 1557.678711,518.452271 1548.662109,512.682495 
	C1540.825195,507.667603 1532.320435,507.587769 1523.774048,507.136475 
	C1514.205200,506.631226 1505.522583,509.596527 1497.165894,515.604919 
M1042.897217,565.434387 
	C1042.054932,570.305237 1041.367432,575.209106 1040.338989,580.040344 
	C1037.975830,591.142761 1035.217285,602.165161 1033.046753,613.303284 
	C1030.685547,625.419373 1028.786255,637.625977 1026.727417,649.800171 
	C1025.434082,657.448242 1024.288574,665.121826 1022.938904,672.759644 
	C1022.216736,676.846497 1024.090576,678.229370 1027.836426,678.182617 
	C1035.323608,678.089172 1042.811523,678.021484 1050.299194,678.015442 
	C1053.969971,678.012451 1055.535156,676.100830 1056.035034,672.629456 
	C1056.977417,666.083923 1057.957153,659.533264 1059.254272,653.051331 
	C1063.074829,633.960815 1067.092041,614.909851 1070.967529,595.830261 
	C1074.356812,579.143738 1077.829224,562.470276 1080.853149,545.716675 
	C1081.453613,542.389954 1082.849609,542.095703 1085.412354,542.145508 
	C1089.568115,542.226196 1093.734131,542.355286 1097.881592,542.161560 
	C1105.863403,541.788574 1106.143921,541.759705 1107.709595,534.183594 
	C1109.338989,526.299133 1110.342896,518.285461 1111.634521,510.239716 
	C1108.738525,509.837067 1106.936890,509.378418 1105.132202,509.367065 
	C1080.015137,509.208984 1054.897461,509.107269 1029.780029,509.005402 
	C1025.886230,508.989624 1024.224609,511.318329 1023.622681,514.861816 
	C1022.381470,522.170227 1021.348694,529.532898 1019.656250,536.738403 
	C1018.676453,540.910095 1019.801331,542.247559 1023.842163,542.190369 
	C1031.265381,542.085266 1038.691162,542.160400 1047.067139,542.160400 
	C1045.582275,550.356689 1044.294312,557.466431 1042.897217,565.434387 
M1386.250854,677.712769 
	C1406.845581,677.474731 1427.441895,677.305481 1448.031494,676.841187 
	C1449.381470,676.810791 1451.557861,674.703552 1451.857422,673.253845 
	C1453.495483,665.329163 1454.662842,657.307312 1456.000000,649.320190 
	C1456.532227,646.140442 1455.438599,644.826233 1451.996704,644.943420 
	C1444.520020,645.197937 1437.025391,644.929932 1429.548706,645.186401 
	C1425.199707,645.335632 1424.543091,643.239563 1425.141479,639.650452 
	C1426.232178,633.108887 1427.204834,626.547424 1428.208862,619.991577 
	C1430.587769,604.457764 1432.635742,588.864563 1435.420776,573.403992 
	C1438.078613,558.649353 1441.594727,544.051208 1444.541016,529.345703 
	C1445.787231,523.125549 1446.540649,516.806641 1447.614136,509.916290 
	C1436.503662,509.916290 1426.544556,509.788269 1416.597656,510.078308 
	C1415.353760,510.114563 1413.371704,512.199646 1413.089355,513.607666 
	C1410.209839,527.963379 1407.517700,542.358826 1404.956787,556.775818 
	C1400.964600,579.250854 1397.148315,601.757080 1393.187134,624.237610 
	C1391.845581,631.850952 1390.318604,639.432251 1388.826294,647.018250 
	C1387.301758,654.767151 1385.522339,662.473145 1384.281006,670.265808 
	C1383.935791,672.432434 1385.104370,674.840149 1386.250854,677.712769 
M1344.828491,535.254700 
	C1344.053589,540.161560 1343.358276,545.082458 1342.489014,549.972595 
	C1339.978882,564.093628 1337.318726,578.188477 1334.869385,592.319885 
	C1332.586304,605.492432 1330.639526,618.723999 1328.284424,631.882996 
	C1325.896484,645.225952 1323.154541,658.505188 1320.650269,671.827881 
	C1320.083008,674.845764 1321.018677,677.276978 1324.546997,677.404114 
	C1333.669189,677.732910 1342.798218,678.042419 1351.921875,677.979919 
	C1353.260254,677.970703 1355.463989,676.086731 1355.767700,674.733643 
	C1357.362183,667.626709 1358.537109,660.422119 1359.743042,653.232178 
	C1364.226562,626.500977 1368.499634,599.733276 1373.181885,573.037109 
	C1376.067993,556.581604 1379.587524,540.237793 1382.737793,523.827515 
	C1383.358398,520.594849 1383.616089,517.290466 1383.994263,514.013794 
	C1384.329224,511.112549 1383.038208,509.569550 1380.068848,509.605377 
	C1372.078613,509.701813 1364.085205,509.718262 1356.099854,509.976685 
	C1352.318237,510.099060 1349.532715,511.708069 1348.759033,515.949463 
	C1347.632690,522.124207 1346.223511,528.247437 1344.828491,535.254700 
z"/>
<path fill="#00841F" opacity="1.000000" stroke="none" 
	d="
M866.922363,664.069824 
	C809.332947,650.867981 759.966370,623.313660 716.973999,582.701904 
	C714.831665,585.017212 712.761597,587.254333 710.435608,589.768066 
	C768.631348,644.741821 837.288330,675.116577 917.280762,681.179749 
	C916.707947,682.869263 916.215393,684.322021 915.726990,685.762512 
	C872.948120,682.549133 832.050903,672.987732 793.302734,654.985718 
	C765.247437,641.951416 739.737305,624.973389 716.409180,604.688965 
	C712.010315,600.864075 707.435669,597.202026 703.372375,593.044434 
	C700.732361,590.343140 697.983093,589.824585 694.473633,590.016296 
	C680.026001,590.805542 665.557556,592.092468 651.113098,591.909058 
	C591.764221,591.155640 536.283386,576.005798 486.002228,544.237000 
	C418.948517,501.870941 376.065552,441.797577 358.313202,364.352600 
	C351.208557,333.358429 349.716919,301.866211 352.798462,270.130463 
	C355.867554,238.523544 363.781250,208.268326 376.567352,179.246033 
	C376.696747,178.952362 376.967957,178.721176 377.383179,178.193863 
	C399.363739,188.163223 417.871094,203.077545 435.610352,220.062241 
	C469.451233,176.599457 503.126373,133.349533 537.575562,89.105507 
	C521.895508,76.298347 506.384644,63.629353 490.074738,50.307701 
	C502.019226,44.274902 513.999268,37.615620 526.466736,32.047619 
	C557.086731,18.372639 589.152283,10.021091 622.598511,6.774546 
	C685.885193,0.631456 746.732117,9.588400 803.520081,38.552395 
	C882.200867,78.682594 933.619141,141.616638 955.594604,227.625305 
	C964.146179,261.094574 966.524536,295.300812 962.779297,329.599640 
	C953.503418,414.547791 914.445129,482.628906 845.451172,533.330811 
	C843.343994,534.879272 841.304260,536.519470 839.233093,538.116943 
	C839.244934,538.633545 839.256714,539.150146 839.268555,539.666748 
	C860.103943,543.039246 880.860291,547.064941 901.796936,549.601318 
	C922.890869,552.156799 944.164062,553.232849 965.454956,554.964966 
	C964.891541,557.385376 964.991577,560.256897 960.380859,559.933289 
	C923.159729,557.320923 885.959839,554.511108 849.318848,547.042358 
	C831.897827,543.491333 814.576050,539.422180 798.478882,530.796570 
	C796.902649,533.541016 795.443176,536.082092 793.833618,538.884521 
	C805.896973,545.790344 818.763611,549.661621 831.802124,552.894104 
	C863.570923,560.770203 895.976318,564.447327 928.532776,567.004639 
	C938.825806,567.813171 949.123718,568.559692 960.225952,569.395264 
	C947.050476,603.886108 933.947632,638.186768 920.676758,672.927307 
	C902.848633,669.988525 885.092712,667.061646 866.922363,664.069824 
M812.361206,322.831268 
	C815.040833,306.421173 814.817993,290.020569 812.057251,273.652466 
	C803.239624,221.373428 774.858398,183.448578 727.224609,160.586380 
	C693.489807,144.395111 657.709900,141.195938 621.306458,149.250580 
	C586.172668,157.024307 556.461365,174.448715 534.067444,203.052216 
	C503.789612,241.725845 494.604980,285.560730 505.247314,333.078339 
	C514.767883,375.587646 539.011169,408.035217 577.109253,429.575165 
	C610.907593,448.684143 647.177185,454.214966 685.344910,448.028900 
	C724.681580,441.653381 757.180359,423.249359 782.171448,392.122589 
	C798.279175,372.060089 808.252197,349.164642 812.361206,322.831268 
M878.137268,621.210999 
	C881.325012,621.928528 884.512695,622.646118 888.006958,623.432678 
	C888.707397,620.041931 889.296082,617.192322 889.920288,614.170837 
	C880.599976,611.892944 871.630981,609.700867 862.403015,607.445496 
	C861.493774,610.528870 860.664917,613.339844 859.706482,616.590149 
	C865.794373,618.137024 871.553467,619.600403 878.137268,621.210999 
M791.388977,580.034851 
	C790.439758,581.724487 789.490540,583.414185 788.350342,585.443848 
	C797.108826,590.096191 805.410522,594.505920 814.129578,599.137329 
	C815.614746,595.967163 816.901611,593.220398 818.180115,590.491394 
	C810.334229,586.230774 802.951477,582.123596 795.432861,578.282227 
	C794.634827,577.874390 793.041321,579.023621 791.388977,580.034851 
M918.194214,618.393860 
	C911.883301,617.567322 905.572388,616.740784 899.256104,615.913574 
	C898.691589,619.301147 898.236023,622.034607 897.673279,625.411438 
	C907.502563,626.670105 916.899109,627.873352 926.682800,629.126160 
	C926.927551,625.604065 927.128601,622.711426 927.351196,619.509216 
	C924.268127,619.155945 921.672058,618.858521 918.194214,618.393860 
M761.136230,567.239136 
	C767.332581,571.555054 773.528870,575.870911 779.967590,580.355652 
	C781.862366,577.382751 783.424683,574.931519 785.068848,572.351746 
	C777.191650,566.870300 769.605286,561.591248 761.745911,556.122192 
	C759.815002,558.589355 758.004822,560.902222 756.065796,563.379700 
	C757.680603,564.640747 759.094360,565.744812 761.136230,567.239136 
M840.494019,609.988037 
	C843.726318,611.103699 846.958618,612.219360 850.469238,613.431030 
	C851.516785,610.151672 852.395752,607.400146 853.292236,604.593567 
	C844.208679,601.113037 835.629517,597.825745 826.827209,594.452942 
	C825.509644,597.498474 824.373535,600.124390 823.115601,603.032043 
	C829.026184,605.429382 834.384827,607.602844 840.494019,609.988037 
M746.530579,556.045471 
	C752.124878,557.617798 751.100159,551.550842 754.276062,550.142639 
	C746.860107,543.672729 739.914795,537.613403 732.790955,531.398315 
	C730.524353,533.788574 728.514282,535.908386 726.172363,538.378052 
	C733.014526,544.325439 739.495117,549.958557 746.530579,556.045471 
z"/>
<path fill="#00841F" opacity="1.000000" stroke="none" 
	d="
M190.552628,204.561737 
	C165.775620,234.452194 153.492798,268.306183 155.915558,306.914276 
	C159.486572,363.819916 188.021683,404.816406 237.271591,432.000702 
	C263.512268,446.484711 291.869659,452.156342 321.739410,449.878113 
	C338.692444,448.585144 354.965332,444.212189 371.194366,437.733917 
	C393.385956,482.406952 425.399536,518.469238 467.128357,547.800659 
	C454.180511,554.177063 442.336212,560.634766 430.002960,565.960205 
	C399.486237,579.137390 367.570129,586.890442 334.354889,589.186096 
	C253.175766,594.796509 179.691360,573.702820 115.216148,524.043457 
	C60.601849,481.979095 25.501789,426.837341 11.287179,359.098480 
	C5.006354,329.167542 3.418476,298.867828 6.760108,268.314819 
	C15.427419,189.068420 51.070595,124.436340 112.586342,74.288177 
	C150.498459,43.381897 194.243210,24.128700 242.049896,13.965025 
	C267.547607,8.544228 293.323700,6.208902 319.336456,6.994438 
	C351.617004,7.969249 382.707184,15.191581 412.864502,26.406746 
	C451.891571,40.920486 486.689758,62.544868 517.897766,90.029861 
	C518.254150,90.343735 518.505371,90.776970 518.923157,91.302193 
	C490.769257,127.568581 462.647278,163.793793 434.411926,200.165085 
	C429.277405,195.996460 424.496979,191.869308 419.466949,188.072845 
	C393.770477,168.678177 365.391632,154.899323 333.372559,150.405457 
	C296.652985,145.251877 262.052612,152.736786 230.004593,171.428741 
	C215.086716,180.129593 201.920029,191.025314 190.552628,204.561737 
z"/>
<path fill="#018520" opacity="1.000000" stroke="none" 
	d="
M1108.842651,634.699585 
	C1110.530273,624.537476 1112.190796,614.820557 1113.775146,605.091187 
	C1115.501831,594.487610 1117.150635,583.871399 1118.846680,573.262756 
	C1121.352783,557.588562 1123.879517,541.917664 1126.376953,526.242065 
	C1126.975708,522.483337 1127.593750,518.722961 1128.017334,514.942505 
	C1128.391968,511.599213 1130.020630,509.722290 1133.443115,509.845886 
	C1151.192871,510.486633 1169.212036,509.523163 1186.605713,512.368164 
	C1201.122925,514.742737 1208.593018,521.113220 1209.933472,537.209778 
	C1211.356445,554.297180 1208.681030,570.467163 1199.257935,585.240845 
	C1194.553955,592.615723 1188.640991,598.325745 1180.110840,601.722412 
	C1184.019043,617.220215 1187.865845,632.567322 1191.765869,647.900879 
	C1193.758667,655.735535 1195.890991,663.534912 1197.865234,671.374146 
	C1198.451416,673.702026 1198.177490,675.743164 1195.062012,676.006165 
	C1187.448120,676.648682 1179.827393,677.233154 1172.230591,678.041321 
	C1168.123169,678.478271 1166.052002,676.597168 1165.085693,672.873962 
	C1162.026611,661.087219 1158.899048,649.318176 1155.870972,637.523499 
	C1153.691162,629.032776 1151.699585,620.493164 1149.448120,612.022095 
	C1149.031616,610.455322 1147.775269,609.111755 1146.064209,606.262634 
	C1145.073730,609.388916 1144.321533,610.960266 1144.093506,612.604309 
	C1141.345581,632.427673 1138.654297,652.259094 1136.003418,672.095703 
	C1135.518311,675.725464 1134.512329,678.227905 1129.970581,678.037231 
	C1122.321411,677.716064 1114.650024,677.961914 1106.990234,677.833679 
	C1104.564819,677.793152 1102.208618,677.307068 1102.751831,673.849915 
	C1104.778687,660.948975 1106.774536,648.043213 1108.842651,634.699585 
M1176.151489,544.580505 
	C1174.827026,538.304504 1172.541138,537.019043 1163.109985,536.169495 
	C1158.764282,535.777954 1156.562988,537.345215 1156.005127,541.552307 
	C1154.919312,549.739746 1153.804932,557.923401 1152.720947,566.111084 
	C1152.168335,570.285095 1151.656006,574.464355 1151.138794,578.536133 
	C1159.597534,580.840149 1166.012695,578.564880 1170.507568,572.066345 
	C1176.037598,564.071167 1178.184082,555.117554 1176.151489,544.580505 
z"/>
<path fill="#018520" opacity="1.000000" stroke="none" 
	d="
M1206.403076,658.496826 
	C1215.551270,635.801331 1224.394165,613.393311 1233.483643,591.085815 
	C1240.138428,574.753662 1247.046143,558.523193 1253.976562,542.305176 
	C1258.587646,531.514526 1263.436890,520.825745 1268.240479,509.953644 
	C1277.548706,509.953644 1286.699341,510.024170 1295.847778,509.915802 
	C1299.102173,509.877289 1300.155029,511.318298 1300.289917,514.410706 
	C1300.934692,529.205139 1301.827271,543.988892 1302.457153,558.783875 
	C1303.099365,573.864075 1303.607544,588.950989 1304.049927,604.038574 
	C1304.722534,626.975708 1305.170410,649.920227 1306.001831,672.851196 
	C1306.161011,677.240112 1304.704590,678.205505 1300.682983,678.086365 
	C1292.038940,677.830261 1283.382202,678.007812 1273.645874,678.007812 
	C1273.645874,669.595825 1273.645874,661.298096 1273.645874,651.636841 
	C1264.465454,651.636841 1256.343994,651.540344 1248.230835,651.752625 
	C1247.154907,651.780823 1245.665527,653.167603 1245.142212,654.287170 
	C1242.345337,660.271179 1239.335205,666.221680 1237.312500,672.479065 
	C1235.857788,676.979309 1233.688354,678.418579 1229.115479,678.152100 
	C1221.475708,677.706970 1213.800171,677.898804 1206.141357,677.745361 
	C1204.194946,677.706482 1202.254272,677.377197 1199.096436,677.058899 
	C1201.630981,670.557129 1203.917236,664.692200 1206.403076,658.496826 
M1274.872803,572.931213 
	C1274.746460,571.637634 1274.620239,570.344055 1274.494019,569.050476 
	C1273.865234,568.984802 1273.236450,568.919067 1272.607666,568.853394 
	C1267.022949,585.502625 1261.438110,602.151794 1255.552002,619.699097 
	C1261.010864,620.132141 1265.245361,620.497681 1269.484741,620.794739 
	C1272.718018,621.021362 1273.872192,619.297974 1273.930542,616.229553 
	C1274.198975,602.098267 1274.563965,587.968872 1274.872803,572.931213 
z"/>
<path fill="#018520" opacity="1.000000" stroke="none" 
	d="
M1497.446411,515.378723 
	C1505.522583,509.596527 1514.205200,506.631226 1523.774048,507.136475 
	C1532.320435,507.587769 1540.825195,507.667603 1548.662109,512.682495 
	C1557.678711,518.452271 1561.782837,526.796448 1562.575073,536.634033 
	C1563.152832,543.807739 1561.581787,551.137939 1561.223877,558.410950 
	C1561.061279,561.715393 1559.113281,562.869324 1556.455933,562.923462 
	C1549.461670,563.066101 1542.461426,562.916992 1535.463623,562.895569 
	C1531.873901,562.884583 1531.544067,560.512573 1531.746460,557.776001 
	C1532.089600,553.136414 1532.916260,548.478882 1532.715454,543.864746 
	C1532.373779,536.018982 1525.417603,531.912903 1519.315674,535.918091 
	C1517.356934,537.203796 1515.973389,539.919495 1515.139282,542.269348 
	C1511.504639,552.509583 1515.652100,561.191528 1521.622437,569.042725 
	C1527.618286,576.927673 1534.886353,583.902283 1540.389160,592.087708 
	C1545.096069,599.089111 1549.187622,606.912415 1551.596680,614.957520 
	C1555.498413,627.986816 1554.506104,641.339111 1551.313232,654.673462 
	C1548.099731,668.094666 1534.028687,679.013733 1519.790161,680.143250 
	C1513.710815,680.625610 1507.547974,680.388367 1501.439697,680.111389 
	C1481.432129,679.204102 1472.577271,667.322571 1469.353516,650.586121 
	C1467.663208,641.811523 1468.902710,632.456665 1468.974365,623.365051 
	C1469.013062,618.465942 1472.056152,616.870789 1476.561401,616.953308 
	C1482.557861,617.063232 1488.564331,617.159851 1494.553955,616.933350 
	C1498.536499,616.782715 1499.968384,618.745361 1500.017090,622.269348 
	C1500.074585,626.434143 1500.008667,630.600586 1500.003540,634.766357 
	C1500.001953,636.099304 1499.979614,637.434387 1500.042236,638.764893 
	C1500.379150,645.923584 1504.164062,650.792480 1509.409424,650.852112 
	C1515.092651,650.916687 1519.082275,646.429932 1520.004150,639.312805 
	C1522.022217,623.732788 1516.427856,610.721436 1506.585205,599.156433 
	C1501.313354,592.962158 1495.207031,587.362793 1490.692749,580.674500 
	C1486.885864,575.034424 1483.382568,568.442749 1482.326782,561.858276 
	C1480.509155,550.524536 1481.880493,538.929993 1487.304565,528.519714 
	C1489.770386,523.786926 1493.829468,519.884155 1497.446411,515.378723 
z"/>
<path fill="#028520" opacity="1.000000" stroke="none" 
	d="
M1042.951660,565.005249 
	C1044.294312,557.466431 1045.582275,550.356689 1047.067139,542.160400 
	C1038.691162,542.160400 1031.265381,542.085266 1023.842163,542.190369 
	C1019.801331,542.247559 1018.676453,540.910095 1019.656250,536.738403 
	C1021.348694,529.532898 1022.381470,522.170227 1023.622681,514.861816 
	C1024.224609,511.318329 1025.886230,508.989624 1029.780029,509.005402 
	C1054.897461,509.107269 1080.015137,509.208984 1105.132202,509.367065 
	C1106.936890,509.378418 1108.738525,509.837067 1111.634521,510.239716 
	C1110.342896,518.285461 1109.338989,526.299133 1107.709595,534.183594 
	C1106.143921,541.759705 1105.863403,541.788574 1097.881592,542.161560 
	C1093.734131,542.355286 1089.568115,542.226196 1085.412354,542.145508 
	C1082.849609,542.095703 1081.453613,542.389954 1080.853149,545.716675 
	C1077.829224,562.470276 1074.356812,579.143738 1070.967529,595.830261 
	C1067.092041,614.909851 1063.074829,633.960815 1059.254272,653.051331 
	C1057.957153,659.533264 1056.977417,666.083923 1056.035034,672.629456 
	C1055.535156,676.100830 1053.969971,678.012451 1050.299194,678.015442 
	C1042.811523,678.021484 1035.323608,678.089172 1027.836426,678.182617 
	C1024.090576,678.229370 1022.216736,676.846497 1022.938904,672.759644 
	C1024.288574,665.121826 1025.434082,657.448242 1026.727417,649.800171 
	C1028.786255,637.625977 1030.685547,625.419373 1033.046753,613.303284 
	C1035.217285,602.165161 1037.975830,591.142761 1040.338989,580.040344 
	C1041.367432,575.209106 1042.054932,570.305237 1042.951660,565.005249 
z"/>
<path fill="#018520" opacity="1.000000" stroke="none" 
	d="
M1385.914673,677.425049 
	C1385.104370,674.840149 1383.935791,672.432434 1384.281006,670.265808 
	C1385.522339,662.473145 1387.301758,654.767151 1388.826294,647.018250 
	C1390.318604,639.432251 1391.845581,631.850952 1393.187134,624.237610 
	C1397.148315,601.757080 1400.964600,579.250854 1404.956787,556.775818 
	C1407.517700,542.358826 1410.209839,527.963379 1413.089355,513.607666 
	C1413.371704,512.199646 1415.353760,510.114563 1416.597656,510.078308 
	C1426.544556,509.788269 1436.503662,509.916290 1447.614136,509.916290 
	C1446.540649,516.806641 1445.787231,523.125549 1444.541016,529.345703 
	C1441.594727,544.051208 1438.078613,558.649353 1435.420776,573.403992 
	C1432.635742,588.864563 1430.587769,604.457764 1428.208862,619.991577 
	C1427.204834,626.547424 1426.232178,633.108887 1425.141479,639.650452 
	C1424.543091,643.239563 1425.199707,645.335632 1429.548706,645.186401 
	C1437.025391,644.929932 1444.520020,645.197937 1451.996704,644.943420 
	C1455.438599,644.826233 1456.532227,646.140442 1456.000000,649.320190 
	C1454.662842,657.307312 1453.495483,665.329163 1451.857422,673.253845 
	C1451.557861,674.703552 1449.381470,676.810791 1448.031494,676.841187 
	C1427.441895,677.305481 1406.845581,677.474731 1385.914673,677.425049 
z"/>
<path fill="#018520" opacity="1.000000" stroke="none" 
	d="
M1344.881592,534.823608 
	C1346.223511,528.247437 1347.632690,522.124207 1348.759033,515.949463 
	C1349.532715,511.708069 1352.318237,510.099060 1356.099854,509.976685 
	C1364.085205,509.718262 1372.078613,509.701813 1380.068848,509.605377 
	C1383.038208,509.569550 1384.329224,511.112549 1383.994263,514.013794 
	C1383.616089,517.290466 1383.358398,520.594849 1382.737793,523.827515 
	C1379.587524,540.237793 1376.067993,556.581604 1373.181885,573.037109 
	C1368.499634,599.733276 1364.226562,626.500977 1359.743042,653.232178 
	C1358.537109,660.422119 1357.362183,667.626709 1355.767700,674.733643 
	C1355.463989,676.086731 1353.260254,677.970703 1351.921875,677.979919 
	C1342.798218,678.042419 1333.669189,677.732910 1324.546997,677.404114 
	C1321.018677,677.276978 1320.083008,674.845764 1320.650269,671.827881 
	C1323.154541,658.505188 1325.896484,645.225952 1328.284424,631.882996 
	C1330.639526,618.723999 1332.586304,605.492432 1334.869385,592.319885 
	C1337.318726,578.188477 1339.978882,564.093628 1342.489014,549.972595 
	C1343.358276,545.082458 1344.053589,540.161560 1344.881592,534.823608 
z"/>
<path fill="#FFFFFF" opacity="1.000000" stroke="none" 
	d="
M812.252075,323.255096 
	C808.252197,349.164642 798.279175,372.060089 782.171448,392.122589 
	C757.180359,423.249359 724.681580,441.653381 685.344910,448.028900 
	C647.177185,454.214966 610.907593,448.684143 577.109253,429.575165 
	C539.011169,408.035217 514.767883,375.587646 505.247314,333.078339 
	C494.604980,285.560730 503.789612,241.725845 534.067444,203.052216 
	C556.461365,174.448715 586.172668,157.024307 621.306458,149.250580 
	C657.709900,141.195938 693.489807,144.395111 727.224609,160.586380 
	C774.858398,183.448578 803.239624,221.373428 812.057251,273.652466 
	C814.817993,290.020569 815.040833,306.421173 812.252075,323.255096 
z"/>
<path fill="#F8FBF8" opacity="1.000000" stroke="none" 
	d="
M877.724976,621.137329 
	C871.553467,619.600403 865.794373,618.137024 859.706482,616.590149 
	C860.664917,613.339844 861.493774,610.528870 862.403015,607.445496 
	C871.630981,609.700867 880.599976,611.892944 889.920288,614.170837 
	C889.296082,617.192322 888.707397,620.041931 888.006958,623.432678 
	C884.512695,622.646118 881.325012,621.928528 877.724976,621.137329 
z"/>
<path fill="#F6FBF7" opacity="1.000000" stroke="none" 
	d="
M791.602905,579.742676 
	C793.041321,579.023621 794.634827,577.874390 795.432861,578.282227 
	C802.951477,582.123596 810.334229,586.230774 818.180115,590.491394 
	C816.901611,593.220398 815.614746,595.967163 814.129578,599.137329 
	C805.410522,594.505920 797.108826,590.096191 788.350342,585.443848 
	C789.490540,583.414185 790.439758,581.724487 791.602905,579.742676 
z"/>
<path fill="#F6FBF7" opacity="1.000000" stroke="none" 
	d="
M918.635132,618.477417 
	C921.672058,618.858521 924.268127,619.155945 927.351196,619.509216 
	C927.128601,622.711426 926.927551,625.604065 926.682800,629.126160 
	C916.899109,627.873352 907.502563,626.670105 897.673279,625.411438 
	C898.236023,622.034607 898.691589,619.301147 899.256104,615.913574 
	C905.572388,616.740784 911.883301,617.567322 918.635132,618.477417 
z"/>
<path fill="#F6FBF7" opacity="1.000000" stroke="none" 
	d="
M760.822144,567.044006 
	C759.094360,565.744812 757.680603,564.640747 756.065796,563.379700 
	C758.004822,560.902222 759.815002,558.589355 761.745911,556.122192 
	C769.605286,561.591248 777.191650,566.870300 785.068848,572.351746 
	C783.424683,574.931519 781.862366,577.382751 779.967590,580.355652 
	C773.528870,575.870911 767.332581,571.555054 760.822144,567.044006 
z"/>
<path fill="#F7FBF8" opacity="1.000000" stroke="none" 
	d="
M840.118774,609.882202 
	C834.384827,607.602844 829.026184,605.429382 823.115601,603.032043 
	C824.373535,600.124390 825.509644,597.498474 826.827209,594.452942 
	C835.629517,597.825745 844.208679,601.113037 853.292236,604.593567 
	C852.395752,607.400146 851.516785,610.151672 850.469238,613.431030 
	C846.958618,612.219360 843.726318,611.103699 840.118774,609.882202 
z"/>
<path fill="#F8FCF9" opacity="1.000000" stroke="none" 
	d="
M746.253174,555.818542 
	C739.495117,549.958557 733.014526,544.325439 726.172363,538.378052 
	C728.514282,535.908386 730.524353,533.788574 732.790955,531.398315 
	C739.914795,537.613403 746.860107,543.672729 754.276062,550.142639 
	C751.100159,551.550842 752.124878,557.617798 746.253174,555.818542 
z"/>
<path fill="#FBFDFC" opacity="1.000000" stroke="none" 
	d="
M1176.252930,544.990601 
	C1178.184082,555.117554 1176.037598,564.071167 1170.507568,572.066345 
	C1166.012695,578.564880 1159.597534,580.840149 1151.138794,578.536133 
	C1151.656006,574.464355 1152.168335,570.285095 1152.720947,566.111084 
	C1153.804932,557.923401 1154.919312,549.739746 1156.005127,541.552307 
	C1156.562988,537.345215 1158.764282,535.777954 1163.109985,536.169495 
	C1172.541138,537.019043 1174.827026,538.304504 1176.252930,544.990601 
z"/>
<path fill="#F7FBF8" opacity="1.000000" stroke="none" 
	d="
M1274.883545,573.385010 
	C1274.563965,587.968872 1274.198975,602.098267 1273.930542,616.229553 
	C1273.872192,619.297974 1272.718018,621.021362 1269.484741,620.794739 
	C1265.245361,620.497681 1261.010864,620.132141 1255.552002,619.699097 
	C1261.438110,602.151794 1267.022949,585.502625 1272.607666,568.853394 
	C1273.236450,568.919067 1273.865234,568.984802 1274.494019,569.050476 
	C1274.620239,570.344055 1274.746460,571.637634 1274.883545,573.385010 
z"/>
</svg>