<svg width="680" height="397" viewBox="0 0 680 397" fill="none" xmlns="http://www.w3.org/2000/svg">
<path d="M23.3552 330.833L0.898193 264.667H23.3552H45.8122L68.2693 330.833L45.8122 397H23.3552H0.898193L23.3552 330.833Z" fill="white" fill-opacity="0.06"/>
<path d="M105.099 330.833L82.6418 264.667H105.099H127.556L150.013 330.833L127.556 397H105.099H82.6418L105.099 330.833Z" fill="white" fill-opacity="0.06"/>
<path d="M186.842 330.833L164.385 264.667H186.842H209.299L231.756 330.833L209.299 397H186.842H164.385L186.842 330.833Z" fill="white" fill-opacity="0.06"/>
<path d="M268.586 330.833L246.129 264.667H268.586H291.043L313.5 330.833L291.043 397H268.586H246.129L268.586 330.833Z" fill="white" fill-opacity="0.06"/>
<path d="M350.33 330.833L327.873 264.667H350.33H372.787L395.244 330.833L372.787 397H350.33H327.873L350.33 330.833Z" fill="white" fill-opacity="0.06"/>
<path d="M432.073 330.833L409.616 264.667H432.073H454.53L476.987 330.833L454.53 397H432.073H409.616L432.073 330.833Z" fill="white" fill-opacity="0.06"/>
<path d="M513.817 330.833L491.36 264.667H513.817H536.274L558.731 330.833L536.274 397H513.817H491.36L513.817 330.833Z" fill="white" fill-opacity="0.06"/>
<path d="M595.561 330.833L573.104 264.667H595.561H618.018L640.475 330.833L618.018 397H595.561H573.104L595.561 330.833Z" fill="white" fill-opacity="0.06"/>
<path d="M63.7778 198.5L41.3208 132.333H63.7778H86.2348L108.692 198.5L86.2348 264.667H63.7778H41.3208L63.7778 198.5Z" fill="white" fill-opacity="0.06"/>
<path d="M145.521 198.5L123.064 132.333H145.521H167.978L190.436 198.5L167.978 264.667H145.521H123.064L145.521 198.5Z" fill="white" fill-opacity="0.06"/>
<path d="M227.265 198.5L204.808 132.333H227.265H249.722L272.179 198.5L249.722 264.667H227.265H204.808L227.265 198.5Z" fill="white" fill-opacity="0.06"/>
<path d="M309.009 198.5L286.552 132.333H309.009H331.466L353.923 198.5L331.466 264.667H309.009H286.552L309.009 198.5Z" fill="white" fill-opacity="0.06"/>
<path d="M390.752 198.5L368.295 132.333H390.752H413.209L435.666 198.5L413.209 264.667H390.752H368.295L390.752 198.5Z" fill="white" fill-opacity="0.06"/>
<path d="M472.496 198.5L450.039 132.333H472.496H494.953L517.41 198.5L494.953 264.667H472.496H450.039L472.496 198.5Z" fill="white" fill-opacity="0.06"/>
<path d="M554.239 198.5L531.782 132.333H554.239H576.696L599.153 198.5L576.696 264.667H554.239H531.782L554.239 198.5Z" fill="white" fill-opacity="0.06"/>
<path d="M635.983 198.5L613.526 132.333H635.983H658.44L680.897 198.5L658.44 264.667H635.983H613.526L635.983 198.5Z" fill="white" fill-opacity="0.06"/>
<path d="M22.457 66.1667L0 0H22.457H44.914L67.3711 66.1667L44.914 132.333H22.457H0L22.457 66.1667Z" fill="white" fill-opacity="0.06"/>
<path d="M104.201 66.1667L81.7437 0H104.201H126.658L149.115 66.1667L126.658 132.333H104.201H81.7437L104.201 66.1667Z" fill="white" fill-opacity="0.06"/>
<path d="M185.944 66.1667L163.487 0H185.944H208.401L230.858 66.1667L208.401 132.333H185.944H163.487L185.944 66.1667Z" fill="white" fill-opacity="0.06"/>
<path d="M267.687 66.1667L245.23 0H267.687H290.145L312.602 66.1667L290.145 132.333H267.687H245.23L267.687 66.1667Z" fill="white" fill-opacity="0.06"/>
<path d="M349.431 66.1667L326.974 0H349.431H371.888L394.345 66.1667L371.888 132.333H349.431H326.974L349.431 66.1667Z" fill="white" fill-opacity="0.06"/>
<path d="M431.175 66.1667L408.718 0H431.175H453.632L476.089 66.1667L453.632 132.333H431.175H408.718L431.175 66.1667Z" fill="white" fill-opacity="0.06"/>
<path d="M512.918 66.1667L490.461 0H512.918H535.375L557.832 66.1667L535.375 132.333H512.918H490.461L512.918 66.1667Z" fill="white" fill-opacity="0.06"/>
<path d="M594.662 66.1667L572.205 0H594.662H617.119L639.576 66.1667L617.119 132.333H594.662H572.205L594.662 66.1667Z" fill="white" fill-opacity="0.06"/>
</svg>
